<svg width="30" height="30" viewBox="0 0 30 30" fill="none" xmlns="http://www.w3.org/2000/svg">
<path d="M15 30C23.2843 30 30 23.2843 30 15C30 6.71573 23.2843 0 15 0C6.71573 0 0 6.71573 0 15C0 23.2843 6.71573 30 15 30Z" fill="url(#paint0_linear)"/>
<path d="M15 27.5C8.10753 27.5 2.5 21.8924 2.5 15C2.5 8.10753 8.10753 2.5 15 2.5C21.8927 2.5 27.5 8.10753 27.5 15C27.5 21.8924 21.8927 27.5 15 27.5Z" fill="url(#paint1_linear)"/>
<path opacity="0.3" d="M8.4375 20.6805L14.2936 17.3425V13.5948L8.4375 10.2568V20.6805Z" fill="black"/>
<path opacity="0.3" d="M21.914 10.2569V15.0964L14.2939 10.2568V20.6805L21.914 15.8408V20.6804H22.4999V10.2569H21.914Z" fill="black"/>
<path d="M7.96875 20.2117L13.8249 16.8738V13.126L7.96875 9.78809V20.2117Z" fill="#6E1D39"/>
<path d="M21.4452 9.78815V14.6277L13.8252 9.78809V20.2117L21.4452 15.3721V20.2116H22.0312V9.78815H21.4452Z" fill="#6E1D39"/>
<defs>
<linearGradient id="paint0_linear" x1="7.38281" y1="2.69531" x2="26.25" y2="25.6641" gradientUnits="userSpaceOnUse">
<stop/>
<stop offset="1" stop-color="#010004"/>
</linearGradient>
<linearGradient id="paint1_linear" x1="7.03125" y1="5.2734" x2="27.4805" y2="21.4453" gradientUnits="userSpaceOnUse">
<stop/>
<stop offset="1" stop-color="#AD315D"/>
</linearGradient>
</defs>
</svg>
