<svg width="60" height="60" viewBox="0 0 60 60" fill="none" xmlns="http://www.w3.org/2000/svg">
<path d="M12.2471 5.25452C11.1291 5.25452 10.0732 6.31039 10.0732 7.42843V53.0806C10.0732 54.1365 11.1912 55.2545 12.2471 55.2545H47.0297C48.0856 55.2545 49.2036 54.1365 49.2036 53.0806V19.385L35.0732 5.25452H12.2471Z" fill="#421323" fill-opacity="0.6"/>
<g filter="url(#filter0_f)">
<path d="M34.9486 5.59338L49.079 19.7238H37.1225C36.0666 19.7238 34.9486 18.6058 34.9486 17.5499V5.59338Z" fill="black" fill-opacity="0.392"/>
</g>
<path d="M35.0732 5.25452L49.2036 19.385H37.2471C36.1912 19.385 35.0732 18.2669 35.0732 17.211V5.25452Z" fill="#421323"/>
<path d="M30 24.4877C22.8646 24.4877 17.0833 28.3433 17.0833 33.0988C17.0833 36.8464 20.7477 40.0262 25.7617 41.2095V38.3567C23.1596 37.1855 21.3889 35.2692 21.3889 33.0988C21.3889 29.5327 25.9679 26.6404 31.6146 26.6404C37.2613 26.6404 41.8403 29.5338 41.8403 33.0988C41.8403 35.889 39.1321 38.3603 35.2075 39.2628C35.5234 39.7822 35.8388 40.3018 36.1515 40.8059C40.2351 39.3593 42.9167 36.3964 42.9167 33.0988C42.9167 28.3433 37.1354 24.4877 30 24.4877Z" fill="black"/>
<path d="M26.7708 28.7933V44.9349H30V39.5529H31.0764L34.3056 44.9349H37.5347L34.3056 39.5529L34.0698 39.1826C36.0881 38.4087 37.5304 36.4669 37.5304 34.171C37.5304 31.2023 35.1215 28.7933 32.1485 28.7933H26.7708ZM30 32.0225H32.1485C33.3379 32.0225 34.3013 32.9859 34.3013 34.171C34.3013 35.3647 33.3347 36.3238 32.1485 36.3238H30V32.0182V32.0225Z" fill="black"/>
<defs>
<filter id="filter0_f" x="34.3834" y="5.02817" width="15.2609" height="15.2609" filterUnits="userSpaceOnUse" color-interpolation-filters="sRGB">
<feFlood flood-opacity="0" result="BackgroundImageFix"/>
<feBlend mode="normal" in="SourceGraphic" in2="BackgroundImageFix" result="shape"/>
<feGaussianBlur stdDeviation="0.282609" result="effect1_foregroundBlur"/>
</filter>
</defs>
</svg>
