<svg width="30" height="30" viewBox="0 0 30 30" fill="none" xmlns="http://www.w3.org/2000/svg">
<path d="M15 30C23.2843 30 30 23.2843 30 15C30 6.71573 23.2843 0 15 0C6.71573 0 0 6.71573 0 15C0 23.2843 6.71573 30 15 30Z" fill="url(#paint0_linear)"/>
<path d="M15 27.5C8.10756 27.5 2.5 21.8925 2.5 15C2.5 8.10756 8.10756 2.5 15 2.5C21.8927 2.5 27.5 8.10756 27.5 15C27.5 21.8925 21.8927 27.5 15 27.5Z" fill="url(#paint1_linear)"/>
<path d="M7.5 8.025C7.5 7.52789 7.90289 7.125 8.4 7.125H15L18.75 10.275V21.225C18.75 21.7221 18.3471 22.125 17.85 22.125H8.4C7.90289 22.125 7.5 21.7221 7.5 21.225V8.025Z" fill="white"/>
<path d="M15 7.125V9.375C15 9.87211 15.4029 10.275 15.9 10.275H18.75L15 7.125Z" fill="#F0F1F1"/>
<path d="M20.1562 11.4609L21.3281 9L22.5 11.4609V20.4844H20.1562V11.4609Z" fill="#F4D0A1"/>
<path d="M22.5 12.75V11.4609L21.3281 9V12.75H22.5Z" fill="#EDBC7C"/>
<path d="M22.5 21.4219C22.5 21.8102 22.1852 22.125 21.7969 22.125H20.8594C20.471 22.125 20.1562 21.8102 20.1562 21.4219V20.9531H22.5V21.4219Z" fill="#F79392"/>
<path d="M16.6406 12.2812C16.6406 12.4102 16.5352 12.5156 16.4062 12.5156H12.8906C12.7617 12.5156 12.6562 12.4102 12.6562 12.2812C12.6562 12.1523 12.7617 12.0469 12.8906 12.0469H16.4062C16.5352 12.0469 16.6406 12.1523 16.6406 12.2812Z" fill="#E2E4E5"/>
<path d="M15.2344 13.4531C15.2344 13.582 15.1289 13.6875 15 13.6875H12.8906C12.7617 13.6875 12.6562 13.582 12.6562 13.4531C12.6562 13.3242 12.7617 13.2188 12.8906 13.2188H15C15.1289 13.2188 15.2344 13.3242 15.2344 13.4531Z" fill="#E2E4E5"/>
<path d="M16.6406 15.3281C16.6406 15.457 16.5352 15.5625 16.4062 15.5625H12.8906C12.7617 15.5625 12.6562 15.457 12.6562 15.3281C12.6562 15.1992 12.7617 15.0938 12.8906 15.0938H16.4062C16.5352 15.0938 16.6406 15.1992 16.6406 15.3281Z" fill="#E2E4E5"/>
<path d="M15.2344 16.5C15.2344 16.6289 15.1289 16.7344 15 16.7344H12.8906C12.7617 16.7344 12.6562 16.6289 12.6562 16.5C12.6562 16.3711 12.7617 16.2656 12.8906 16.2656H15C15.1289 16.2656 15.2344 16.3711 15.2344 16.5Z" fill="#E2E4E5"/>
<path d="M16.6406 18.375C16.6406 18.5039 16.5352 18.6094 16.4062 18.6094H12.8906C12.7617 18.6094 12.6562 18.5039 12.6562 18.375C12.6562 18.2461 12.7617 18.1406 12.8906 18.1406H16.4062C16.5352 18.1406 16.6406 18.2461 16.6406 18.375Z" fill="#E2E4E5"/>
<path d="M15.2344 19.5469C15.2344 19.6758 15.1289 19.7812 15 19.7812H12.8906C12.7617 19.7812 12.6562 19.6758 12.6562 19.5469C12.6562 19.418 12.7617 19.3125 12.8906 19.3125H15C15.1289 19.3125 15.2344 19.418 15.2344 19.5469Z" fill="#E2E4E5"/>
<path d="M10.3283 13.9219L9.44373 13.0373C9.35209 12.9459 9.35209 12.7973 9.44373 12.7059C9.53537 12.6143 9.68373 12.6143 9.77514 12.7059L10.2969 13.2277L11.3044 12.0185C11.3874 11.9189 11.5351 11.9055 11.6344 11.9885C11.7338 12.0715 11.7474 12.2191 11.6644 12.3185L10.3283 13.9219Z" fill="#AD315D"/>
<path d="M10.3283 16.9687L9.44373 16.0842C9.35209 15.9928 9.35209 15.8442 9.44373 15.7528C9.53537 15.6612 9.68373 15.6612 9.77514 15.7528L10.2969 16.2745L11.3044 15.0654C11.3874 14.9658 11.5351 14.9524 11.6344 15.0354C11.7338 15.1184 11.7474 15.266 11.6644 15.3654L10.3283 16.9687Z" fill="#AD315D"/>
<path d="M10.3283 20.0156L9.44373 19.1311C9.35209 19.0397 9.35209 18.8911 9.44373 18.7997C9.53537 18.708 9.68373 18.708 9.77514 18.7997L10.2969 19.3214L11.3044 18.1123C11.3874 18.0127 11.5351 17.9993 11.6344 18.0823C11.7338 18.1652 11.7474 18.3129 11.6644 18.4123L10.3283 20.0156Z" fill="#AD315D"/>
<path d="M22.5 20.25H20.1562V20.9531H22.5V20.25Z" fill="#B5855F"/>
<path d="M21.3281 20.4844H20.1562V20.9531H21.3281V20.4844Z" fill="#DA9F71"/>
<path d="M21.3312 8.99609L20.896 9.90992C21.016 10.0688 21.166 10.168 21.3312 10.168C21.4965 10.168 21.6465 10.0691 21.7665 9.90992L21.3312 8.99609Z" fill="#3E3E3F"/>
<path d="M21.9141 11.8128C21.6436 11.8128 21.4158 11.6295 21.3485 11.3803C21.3424 11.3576 21.3141 11.3576 21.308 11.3803C21.2405 11.6295 21.0127 11.8128 20.7422 11.8128C20.4956 11.8128 20.2845 11.6604 20.198 11.4446C20.1888 11.4218 20.1562 11.4281 20.1562 11.4528V20.4846H22.5V11.4528C22.5 11.4281 22.4674 11.4221 22.4583 11.4448C22.3718 11.6604 22.1606 11.8128 21.9141 11.8128Z" fill="#AD315D"/>
<path d="M20.1562 20.4845V11.4595C20.1562 11.4335 20.1907 11.4269 20.2008 11.451C20.2887 11.6634 20.498 11.8127 20.7422 11.8127C21.0138 11.8127 21.2423 11.6277 21.3087 11.377C21.312 11.3648 21.3281 11.3664 21.3281 11.3791V20.4845H20.1562Z" fill="#C84573"/>
<path d="M20.1562 20.9531V21.4219C20.1562 21.8102 20.471 22.125 20.8594 22.125H21.3281V20.9531H20.1562Z" fill="#F7B4B4"/>
<defs>
<linearGradient id="paint0_linear" x1="-1.58203e-07" y1="15" x2="30" y2="15" gradientUnits="userSpaceOnUse">
<stop/>
<stop offset="1"/>
</linearGradient>
<linearGradient id="paint1_linear" x1="7.03125" y1="5.2734" x2="27.4805" y2="21.4453" gradientUnits="userSpaceOnUse">
<stop/>
<stop offset="1" stop-color="#AD315D"/>
</linearGradient>
</defs>
</svg>
