<svg width="61" height="60" viewBox="0 0 61 60" fill="none" xmlns="http://www.w3.org/2000/svg">
<path d="M60.09 17.7977C59.6573 16.8708 58.5012 16.4465 57.508 16.8505L52.6217 18.8372C37.5992 20.1655 35.0585 8.76273 34.7315 6.77332L35.2855 2.02965C35.4027 1.02433 34.625 0.12056 33.5476 0.010946C32.4707 -0.098668 31.5023 0.627372 31.3846 1.6327L30.8544 6.17374C25.7408 18.5267 12.6147 15.1216 10.5679 14.5042L7.93639 12.6983C7.0635 12.0992 5.83564 12.274 5.19373 13.0889C4.55182 13.9036 4.73911 15.0495 5.61226 15.6486L8.28036 17.4796C16.2219 26.6882 7.95077 35.8281 5.92484 37.8239L1.43249 39.6504C0.439271 40.0542 -0.0153536 41.1333 0.41756 42.0602C0.850473 42.9874 2.00639 43.4115 2.99987 43.0077L7.041 41.3647C20.6185 41.2842 24.8786 52.7436 25.278 53.9159L24.8043 57.9704C24.6869 58.9755 25.4648 59.8792 26.542 59.9891C27.6192 60.0985 28.5875 59.3727 28.705 58.3671L29.2624 53.5946C34.5073 42.6757 47.1994 45.1734 49.4061 45.7019L55.1859 49.6683C56.0591 50.2674 57.2869 50.0926 57.9286 49.2779C58.5705 48.463 58.3832 47.3171 57.5103 46.7182L51.6698 42.7101C48.281 38.5629 46.9132 34.597 47.6129 30.9201C48.5489 26.0022 52.9497 22.9254 53.9039 22.3097L59.0748 20.2073C60.0683 19.8037 60.5227 18.7249 60.09 17.7977ZM22.6764 35.0074L27.7264 32.954L27.1033 38.2894C25.9675 37.0368 24.5027 35.8577 22.6764 35.0074ZM17.2222 23.7283C17.0851 23.6768 16.9546 23.6109 16.8319 23.5308C16.9525 23.6048 17.0835 23.6698 17.2222 23.7283ZM32.7853 23.4356C33.6368 24.2398 34.7155 24.9981 36.0794 25.5635L32.3603 27.0756L32.7853 23.4356ZM28.4484 26.7746L24.7523 24.2383C26.1436 23.9791 27.593 23.474 28.9388 22.5729L28.4484 26.7746ZM26.0199 29.6534L21.414 31.5261C21.9615 30.1404 22.278 28.6117 22.1791 27.0177L26.0199 29.6534ZM31.6106 33.4903L35.3085 36.0281C33.907 36.2524 32.4824 36.6896 31.1518 37.4191L31.6106 33.4903ZM36.6907 32.4313L33.834 30.4707L37.0287 29.1719C36.9452 29.4478 36.8707 29.73 36.8137 30.0239C36.6596 30.8196 36.6201 31.6225 36.6907 32.4313ZM34.375 15.3842C36.3193 17.9832 39.5568 20.8244 44.7845 22.0238L42.8789 22.7987C42.8499 22.8002 42.8206 22.8006 42.7913 22.8036C36.1867 23.44 34.1068 19.4898 33.4804 17.486L33.8181 14.5938C33.9944 14.8572 34.1782 15.1211 34.375 15.3842ZM19.1147 18.9371C22.4417 18.6231 26.5004 17.4904 29.9022 14.3272L29.7767 15.4011C29.6359 15.5564 29.5208 15.7356 29.44 15.9345C27.0602 21.7936 21.3831 21.0134 19.3153 20.5068L17.1735 19.0372C17.8042 19.0296 18.4524 18.9996 19.1147 18.9371ZM13.9399 32.9327C15.6122 29.2366 15.9977 25.6079 15.1217 22.1745L16.2172 22.9261C16.3017 23.0689 16.4079 23.1944 16.5313 23.3055C20.7875 28.2704 16.0003 33.2447 15.1201 34.0853L12.8703 35C13.2472 34.3526 13.61 33.6624 13.9399 32.9327ZM24.4836 45.2683C22.2926 42.7868 18.8628 39.9805 13.8745 38.5863L16.8808 37.3639C23.9707 37.568 26.1007 43.8207 26.1896 44.0929C26.2351 44.2325 26.3026 44.3614 26.3795 44.484L26.0562 47.2519C25.5943 46.6035 25.0729 45.9358 24.4836 45.2683ZM40.8054 41.6279C37.5204 42.0183 33.5159 43.1737 30.1335 46.1392L30.4861 43.1198C33.692 38.0131 40.5276 39.7898 40.836 39.8733C40.871 39.8829 40.9066 39.886 40.9416 39.8936L43.2205 41.4572C42.4441 41.4775 41.6364 41.529 40.8054 41.6279ZM44.3443 37.683L42.4695 36.3967C40.939 34.3597 40.3335 32.4372 40.6748 30.6748C41.0745 28.6114 42.6824 27.1625 43.5161 26.5336L45.4599 25.7434C44.7024 27.0566 44.0837 28.5553 43.7583 30.2363C43.2867 32.6713 43.4871 35.1599 44.3443 37.683Z" fill="black"/>
</svg>
