<svg width="40" height="35" viewBox="0 0 40 35" fill="none" xmlns="http://www.w3.org/2000/svg">
<path opacity="0.2" d="M38 10.6521H2C0.895431 10.6521 0 11.5037 0 12.5543V33.0978C0 34.1483 0.895431 34.9999 2 34.9999H38C39.1046 34.9999 40 34.1483 40 33.0978V12.5543C40 11.5037 39.1046 10.6521 38 10.6521Z" fill="black"/>
<path d="M0 25.4891C0 26.5422 0.892 27.3913 2 27.3913H38C39.1072 27.3913 40 26.5422 40 25.4891V4.94565C40 3.89185 39.1072 3.04348 38 3.04348H17.6V1.90217C17.6 0.84837 16.7088 0 15.6 0H2C0.892 0 0 0.84837 0 1.90217" fill="#2C0C17"/>
<path opacity="0.2" d="M38 7.60864H2C0.895431 7.60864 0 8.46027 0 9.51082V30.0543C0 31.1048 0.895431 31.9565 2 31.9565H38C39.1046 31.9565 40 31.1048 40 30.0543V9.51082C40 8.46027 39.1046 7.60864 38 7.60864Z" fill="black"/>
<path d="M38 9.13062H2C0.895431 9.13062 0 9.98225 0 11.0328V31.5763C0 32.6268 0.895431 33.4784 2 33.4784H38C39.1046 33.4784 40 32.6268 40 31.5763V11.0328C40 9.98225 39.1046 9.13062 38 9.13062Z" fill="black"/>
</svg>
