<svg width="30" height="21" viewBox="0 0 30 21" fill="none" xmlns="http://www.w3.org/2000/svg">
<path d="M0.0415595 18.6412C3.34257 18.8952 6.31704 18.184 9.02434 16.4469C6.19236 16.2335 4.29844 15.0246 3.24164 12.7592C4.16782 12.8557 5.03463 12.8811 5.95488 12.6677C2.90323 11.855 1.27647 10.1483 1.0568 7.39523C1.97111 7.76095 2.83198 8.02508 3.84722 8.03524C2.03641 6.87204 1.11023 5.36344 1.14585 3.46371C1.16367 2.59004 1.43677 1.76716 1.97704 0.990004C5.33149 4.34754 9.54087 6.20663 14.7239 6.51648C14.6942 6.32346 14.6764 6.17107 14.6527 6.01361C14.2252 3.19958 16.3626 0.63952 19.6279 0.106175C21.6762 -0.229071 23.487 0.233162 25.0188 1.44208C25.2563 1.62494 25.4581 1.66558 25.755 1.59954C26.9483 1.34049 28.0823 0.964607 29.1807 0.456659C28.7592 1.64526 27.8923 2.53925 26.7168 3.29101C26.984 3.25037 27.2571 3.2199 27.5242 3.17418C27.8033 3.12339 28.0823 3.06751 28.3614 3.00148C28.6285 2.94052 28.8898 2.86941 29.151 2.79322C29.4182 2.71703 29.6853 2.63068 30 2.58496C29.8456 2.76782 29.6972 2.96084 29.531 3.13862C28.8423 3.88531 28.0467 4.54056 27.174 5.1247C27.0849 5.18565 27.0077 5.31772 27.0137 5.40915C27.0612 7.21237 26.7643 8.96987 26.0815 10.6766C24.7398 14.0392 22.4006 16.7618 18.8917 18.7072C17.1581 19.6672 15.2642 20.2971 13.2397 20.6628C11.2329 21.0235 9.21433 21.0895 7.18979 20.8863C5.15931 20.6831 3.22976 20.1701 1.41302 19.3676C0.93212 19.1593 0.469028 18.9256 0 18.7021C0.0178112 18.6818 0.0296853 18.6615 0.0415595 18.6412Z" fill="white"/>
</svg>
